:version 1.10
:name ASF
:units
  mass 1
  length 1
  angle deg
:documentation
  ASF file generated by Kaydara
:root
  axis xyz
  order  tx ty tz rx ry rz
  position 0 0 0
  orientation 0 0 0
:bonedata
  begin
    id 1
    name RightUpLegDummy
    direction -1 2.30186e-007 8.31532e-007
    length 4.04083
    axis 0 0 0 xyz
  end
  begin
    id 2
    name RightUpLeg
    direction -0.000919234 -0.999985 0.00544864
    length 17.4221
    axis -3.80308 -0.00076134 -0.0523649 xyz
    dof rx ry rz
  end
  begin
    id 3
    name RightLeg
    direction -0.000919271 -0.999984 -0.00555045
    length 17.1239
    axis 4.00314 0.0181274 -0.183583 xyz
    dof rx ry rz
  end
  begin
    id 4
    name RightFoot
    direction -2.57843e-005 -4.04509e-007 1
    length 6.72091
    axis 8.18909e-005 -0.122003 -0.403008 xyz
    dof rx ry rz
  end
  begin
    id 5
    name RightToes
    direction 0.00116825 -0.014069 0.9999
    length 3.85082
    axis 0.000514414 0.540638 -0.356797 xyz
    dof rx ry rz
  end
  begin
    id 6
    name SpineDummy
    direction 0.0168869 0.966876 -0.254689
    length 6.99894
    axis 0 0 0 xyz
  end
  begin
    id 7
    name Spine
    direction -0.0132008 0.999903 0.00446247
    length 11.1999
    axis -0.00148109 0.00725429 0.756411 xyz
    dof rx ry rz
  end
  begin
    id 8
    name Spine1
    direction 0 0 0
    length 0
    axis -0.000934958 0.0245693 1.46543 xyz
    dof rx ry rz
  end
  begin
    id 9
    name HEadDummy
    direction -0.0255732 0.999672 0.00128215
    length 3.43865
    axis -0.000934958 0.0245693 1.46543 xyz
  end
  begin
    id 10
    name HEad
    direction -0.0472656 0.980052 0.19304
    length 5.12695
    axis -0.000934954 0.0245693 1.46543 xyz
    dof rx ry rz
  end
  begin
    id 11
    name LeftShoulder1Dummy
    direction 0.953098 0.301717 -0.023914
    length 3.68488
    axis -0.000934958 0.0245693 1.46543 xyz
  end
  begin
    id 12
    name LeftShoulder1
    direction 0.962466 0.271167 0.0112566
    length 3.13809
    axis -0.000934958 0.0245693 1.46543 xyz
    dof rx ry rz
  end
  begin
    id 13
    name LeftArm
    direction 0.999943 0.00455037 -0.00961766
    length 11.3419
    axis -23.1648 0.685459 1.22814 xyz
    dof rx ry rz
  end
  begin
    id 14
    name LeftForeArm
    direction 0.999332 0.0131969 0.0340885
    length 8.70632
    axis -9.90633 0.618216 0.0826942 xyz
    dof rx ry rz
  end
  begin
    id 15
    name LeftHand
    direction 0.994373 -0.0366703 0.0993905
    length 5.32135
    axis 0.00675269 0.680415 0.445699 xyz
    dof rx ry rz
  end
  begin
    id 16
    name RightShoulderDummy
    direction -0.967298 0.252589 -0.0230903
    length 3.68488
    axis -0.000934958 0.0245693 1.46543 xyz
  end
  begin
    id 17
    name RightShoulder
    direction -0.975062 0.221602 0.0120823
    length 3.13809
    axis 0.216257 0.0246515 1.45863 xyz
    dof rx ry rz
  end
  begin
    id 18
    name RightArm
    direction -0.99886 -0.00851186 -0.0469687
    length 10.3947
    axis -23.196 0.23503 -0.532632 xyz
    dof rx ry rz
  end
  begin
    id 19
    name RightForeArm
    direction -0.99909 0.00114866 0.0426317
    length 8.68355
    axis -9.91764 -0.134943 0.610517 xyz
    dof rx ry rz
  end
  begin
    id 20
    name RightHand
    direction -0.992888 -0.0489538 0.10852
    length 5.28593
    axis -0.00275396 -0.197403 0.246414 xyz
    dof rx ry rz
  end
  begin
    id 21
    name LeftUpLegDummy
    direction 1 -2.30186e-007 -8.31532e-007
    length 4.04083
    axis 0 0 0 xyz
  end
  begin
    id 22
    name LeftUpLeg
    direction -0.000920097 -1 2.79241e-006
    length 17.4221
    axis -3.48782 0.00143434 -0.0532288 xyz
    dof rx ry rz
  end
  begin
    id 23
    name LeftLeg
    direction -0.000920097 -1 2.7912e-006
    length 17.1239
    axis 3.68162 -0.00806512 -0.0529896 xyz
    dof rx ry rz
  end
  begin
    id 24
    name LeftFoot
    direction -2.57845e-005 -3.987e-007 1
    length 6.72091
    axis 3.02372e-005 -0.00147829 -0.214229 xyz
    dof rx ry rz
  end
  begin
    id 25
    name LeftToes
    direction 0.00813577 -0.00488255 0.999955
    length 3.85048
    axis 3.89895e-005 -0.0014783 -0.214229 xyz
    dof rx ry rz
  end
:hierarchy
  begin
    root RightUpLegDummy SpineDummy LeftUpLegDummy
    RightUpLegDummy RightUpLeg
    RightUpLeg RightLeg
    RightLeg RightFoot
    RightFoot RightToes
    SpineDummy Spine
    Spine Spine1
    Spine1 HEadDummy LeftShoulder1Dummy RightShoulderDummy
    HEadDummy HEad
    LeftShoulder1Dummy LeftShoulder1
    LeftShoulder1 LeftArm
    LeftArm LeftForeArm
    LeftForeArm LeftHand
    RightShoulderDummy RightShoulder
    RightShoulder RightArm
    RightArm RightForeArm
    RightForeArm RightHand
    LeftUpLegDummy LeftUpLeg
    LeftUpLeg LeftLeg
    LeftLeg LeftFoot
    LeftFoot LeftToes
  end

:SAMPLES-PER-SECOND 30
:FULLY-SPECIFIED
:DEGREES
74
root  -15.4476 34.6932 -7.97389 -166.078 -1.22507 179.295
RightUpLeg  -14.8766 -9.18524 2.06941
RightLeg  7.46135 -0.513976 -0.03279
RightFoot  2.7288 0.0107735 0.115112
RightToes  -21.0117 -0.0840945 -0.184907
Spine  -2.05507 0.38199 0.151639
Spine1  -4.19385 0.948185 0.884077
HEad  -63.0198 -2.87754 6.27783
LeftShoulder1  -1.94126e-019 -3.10601e-018 -2.51263e-017
LeftArm  -6.5077 23.1229 -84.7654
LeftForeArm  33.4799 -17.5775 -2.82759
LeftHand  -0.516066 -3.22449 7.19814
RightShoulder  -4.96962e-017 0 -2.36833e-017
RightArm  -16.972 -21.1925 78.5419
RightForeArm  56.8304 15.4468 1.06058
RightHand  -0.45855 0.398102 -9.43556
LeftUpLeg  -13.4872 -6.49473 -0.917042
LeftLeg  5.1874 11.1306 0.289993
LeftFoot  4.01514 -0.0336614 0.944405
LeftToes  -16.8494 1.31424e-006 1.14295e-007
75
root  -15.4279 34.7027 -7.85262 -165.107 -1.06853 179.318
RightUpLeg  -15.9818 -9.21552 2.3042
RightLeg  7.26594 -0.271063 -0.0158343
RightFoot  2.88942 0.0100783 0.125046
RightToes  -20.6655 -0.0844776 -0.182151
Spine  -1.98267 0.420947 0.154578
Spine1  -4.04497 1.02784 0.891716
HEad  -62.2767 -3.11042 6.1831
LeftShoulder1  -1.94126e-019 -3.10601e-018 -2.51263e-017
LeftArm  -6.27518 23.0476 -84.7319
LeftForeArm  32.7348 -18.2197 -2.90456
LeftHand  -0.501331 -3.22874 6.99664
RightShoulder  -4.96962e-017 0 -2.36833e-017
RightArm  -16.5823 -21.0828 78.6908
RightForeArm  56.2192 15.7707 1.04488
RightHand  -0.461148 0.363154 -9.47246
LeftUpLeg  -14.5903 -6.5244 -0.733806
LeftLeg  5.06045 11.2815 0.269051
LeftFoot  4.27147 -0.037698 1.00715
LeftToes  -17.0183 1.31424e-006 1.14295e-007
76
root  -15.4083 34.7124 -7.70622 -164.025 -0.89444 179.311
RightUpLeg  -17.1922 -9.34306 2.53831
RightLeg  6.92325 0.0548358 0.00422336
RightFoot  3.55123 0.0119385 0.140719
RightToes  -22.1644 -0.0847604 -0.193993
Spine  -1.87281 0.461197 0.130177
Spine1  -3.82098 1.10785 0.846323
HEad  -61.5807 -3.24452 6.09724
LeftShoulder1  -1.94126e-019 -3.10601e-018 -2.51263e-017
LeftArm  -6.36304 22.8802 -84.7503
LeftForeArm  32.2318 -18.8081 -2.98048
LeftHand  -0.489908 -3.18874 6.87218
RightShoulder  -4.96962e-017 0 -2.36833e-017
RightArm  -16.1342 -20.95 78.9258
RightForeArm  55.5648 16.2024 1.03792
RightHand  -0.463519 0.30021 -9.52645
LeftUpLeg  -15.8381 -6.54579 -0.571146
LeftLeg  4.91948 11.453 0.245112
LeftFoot  4.54031 -0.0421048 1.07565
LeftToes  -17.0609 1.31424e-006 1.14295e-007
77
root  -15.3857 34.7248 -7.53187 -162.811 -0.696411 179.338
RightUpLeg  -18.5338 -9.40261 2.84909
RightLeg  6.51397 0.41733 0.0217324
RightFoot  3.94496 0.0129974 0.164664
RightToes  -22.0119 -0.0849186 -0.192798
Spine  -1.71852 0.511392 0.116049
Spine1  -3.50734 1.20661 0.822351
HEad  -60.7441 -3.33941 5.98692
LeftShoulder1  -1.94126e-019 -3.10601e-018 -2.51263e-017
LeftArm  -6.29307 22.6196 -84.7467
LeftForeArm  31.6377 -19.3451 -3.04761
LeftHand  -0.482516 -3.14507 6.80399
RightShoulder  -4.96962e-017 0 -2.36833e-017
RightArm  -15.814 -20.8459 79.1989
RightForeArm  54.872 16.8033 1.06468
RightHand  -0.471082 0.39884 -9.52454
LeftUpLeg  -17.2602 -6.51142 -0.354818
LeftLeg  4.76907 11.6062 0.21951
LeftFoot  4.86173 -0.0472182 1.15513
LeftToes  -17.0713 1.31424e-006 1.14295e-007
78
root  -15.3572 34.7379 -7.31096 -161.341 -0.494583 179.399
RightUpLeg  -20.1998 -9.47846 3.27785
RightLeg  6.06933 0.859122 0.0368697
RightFoot  4.51884 0.0130572 0.201695
RightToes  -22.3663 -0.0849269 -0.192561
Spine  -1.53004 0.560395 0.111888
Spine1  -3.12381 1.30247 0.819355
HEad  -59.8402 -3.33871 5.89508
LeftShoulder1  -1.94126e-019 -3.10601e-018 -2.51263e-017
LeftArm  -6.96559 22.2515 -84.8725
LeftForeArm  31.0779 -19.7634 -3.1116
LeftHand  -0.478976 -3.08262 6.80149
RightShoulder  -4.96962e-017 0 -2.36833e-017
RightArm  -14.8627 -20.6611 79.3418
RightForeArm  53.0961 17.5598 1.22692
RightHand  -0.449044 0.0801504 -9.5819
LeftUpLeg  -19.0545 -6.41834 -0.0710786
LeftLeg  4.68836 11.688 0.203281
LeftFoot  5.25982 -0.0530451 1.2457
LeftToes  -17.2683 1.31424e-006 1.14295e-007
79
root  -15.3294 34.7503 -7.04902 -159.681 -0.259155 179.443
RightUpLeg  -22.1577 -9.58647 3.75761
RightLeg  5.6674 1.39987 0.049544
RightFoot  5.1428 0.0119319 0.256855
RightToes  -22.4669 -0.0847602 -0.192834
Spine  -1.28528 0.60354 0.0930403
Spine1  -2.62912 1.38821 0.783928
HEad  -58.7228 -3.29385 5.85543
LeftShoulder1  -1.94126e-019 -3.10601e-018 -2.51263e-017
LeftArm  -7.83245 21.8008 -84.9602
LeftForeArm  29.625 -20.1659 -3.19904
LeftHand  -0.466775 -2.87848 6.78426
RightShoulder  -4.96962e-017 0 -2.36833e-017
RightArm  -14.7536 -20.2541 79.6667
RightForeArm  51.9873 18.1356 1.37377
RightHand  -0.441737 -0.10618 -9.74145
LeftUpLeg  -21.1222 -6.29691 0.215171
LeftLeg  4.64017 11.7447 0.194451
LeftFoot  5.76669 -0.0602412 1.35757
LeftToes  -17.1943 1.31424e-006 1.14295e-007
80
root  -15.2994 34.76 -6.72304 -157.592 -0.252975 179.605
RightUpLeg  -24.6129 -9.84452 4.55067
RightLeg  5.18743 1.94558 0.0521095
RightFoot  5.88958 0.00992022 0.327871
RightToes  -22.1289 -0.0843937 -0.192654
Spine  -1.055 0.584808 0.134836
Spine1  -2.16002 1.3522 0.869342
HEad  -57.1988 -3.27119 5.78141
LeftShoulder1  -1.94126e-019 -3.10601e-018 -2.51263e-017
LeftArm  -9.08029 21.308 -85.1512
LeftForeArm  27.9697 -20.5461 -3.31171
LeftHand  -0.45614 -2.64102 6.81454
RightShoulder  -4.96962e-017 0 -2.36833e-017
RightArm  -14.9089 -19.8067 79.9853
RightForeArm  50.9233 18.671 1.51301
RightHand  -0.442142 -0.371444 -10.2396
LeftUpLeg  -23.8163 -6.22928 0.710389
LeftLeg  4.70467 11.757 0.207789
LeftFoot  6.36015 -0.0734089 1.48275
LeftToes  -17.2641 1.31424e-006 1.14295e-007
81
root  -15.28 34.7719 -6.33136 -155.214 0.0606995 179.584
RightUpLeg  -27.5898 -9.68794 5.10756
RightLeg  4.91413 2.3423 0.0513377
RightFoot  6.73613 0.00635146 0.400815
RightToes  -21.7899 -0.0838023 -0.191055
Spine  -0.73563 0.628194 0.077469
Spine1  -1.51659 1.4374 0.754643
HEad  -55.5344 -3.23659 5.66148
LeftShoulder1  -1.94126e-019 -3.10601e-018 -2.51263e-017
LeftArm  -10.0842 20.8228 -85.1552
LeftForeArm  26.2962 -21.2385 -3.45855
LeftHand  -0.438428 -2.41844 6.72945
RightShoulder  -4.96962e-017 0 -2.36833e-017
RightArm  -15.3585 -18.8803 80.4625
RightForeArm  49.7718 18.8034 1.58406
RightHand  -0.447965 -0.586496 -10.8175
LeftUpLeg  -26.8432 -6.00786 0.974355
LeftLeg  4.70968 11.8507 0.210454
LeftFoot  7.13376 -0.0931821 1.65634
LeftToes  -16.7682 1.31424e-006 1.14295e-007
82
root  -15.2617 34.7742 -5.89238 -152.718 0.172348 179.584
RightUpLeg  -30.8441 -9.41411 5.68242
RightLeg  4.87061 2.55168 0.053903
RightFoot  7.55083 0.00316117 0.459734
RightToes  -21.1787 -0.0829613 -0.186231
Spine  -0.247971 0.622405 0.0597083
Spine1  -0.538307 1.42921 0.708575
HEad  -53.8126 -3.17179 5.45132
LeftShoulder1  -1.94126e-019 -3.10601e-018 -2.51263e-017
LeftArm  -10.6254 20.1581 -85.0834
LeftForeArm  24.7431 -22.0984 -3.63011
LeftHand  -0.443539 -2.28201 6.91662
RightShoulder  -4.96962e-017 0 -2.36833e-017
RightArm  -15.679 -17.8565 80.85
RightForeArm  48.4705 19.1516 1.70149
RightHand  -0.453126 -0.915529 -11.713
LeftUpLeg  -30.2259 -5.99348 1.37171
LeftLeg  4.98057 11.9835 0.269016
LeftFoot  7.98752 -0.118224 1.85476
LeftToes  -16.4383 1.31424e-006 1.14295e-007
83
root  -15.2397 34.7664 -5.42097 -149.97 0.0964203 179.567
RightUpLeg  -34.3662 -8.80799 6.14185
RightLeg  4.83499 2.22214 0.0456727
RightFoot  8.39024 0.00446364 0.449118
RightToes  -20.0693 -0.0818454 -0.177379
Spine  0.259597 0.624544 0.0425074
Spine1  0.478708 1.43959 0.656846
HEad  -51.5313 -3.26949 5.28671
LeftShoulder1  -1.94126e-019 -3.10601e-018 -2.51263e-017
LeftArm  -10.1429 19.3591 -84.7742
LeftForeArm  23.0695 -22.9816 -3.82299
LeftHand  -0.43318 -1.77634 7.14252
RightShoulder  -4.96962e-017 0 -2.36833e-017
RightArm  -15.8018 -16.9231 81.1626
RightForeArm  47.0066 19.4968 1.82666
RightHand  -0.452041 -1.30411 -12.7548
LeftUpLeg  -33.9708 -6.2043 1.92867
LeftLeg  5.30153 12.1994 0.341624
LeftFoot  8.83747 -0.147406 2.06893
LeftToes  -16.2912 1.31424e-006 1.14295e-007
84
root  -15.2231 34.7497 -4.93691 -146.955 -0.123123 179.434
RightUpLeg  -38.1337 -8.46248 6.62331
RightLeg  4.70458 1.99368 0.0365184
RightFoot  9.22227 0.00526978 0.443508
RightToes  -19.599 -0.0792345 -0.17359
Spine  0.715397 0.632732 0.0332289
Spine1  1.39127 1.46325 0.61825
HEad  -47.9431 -3.69504 4.94658
LeftShoulder1  -1.94126e-019 -3.10601e-018 -2.51263e-017
LeftArm  -9.87249 18.48 -84.4464
LeftForeArm  22.4956 -23.4373 -3.91306
LeftHand  -0.432209 -1.8876 7.08068
RightShoulder  -4.96962e-017 0 -2.36833e-017
RightArm  -15.4775 -16.1791 81.2673
RightForeArm  45.3364 19.8595 1.96568
RightHand  -0.42978 -1.81486 -13.7968
LeftUpLeg  -37.928 -6.39852 2.44585
LeftLeg  5.45314 12.2322 0.374659
LeftFoot  9.79906 -0.181646 2.28032
LeftToes  -16.4192 1.31424e-006 1.14295e-007
